<?xml version="1.0" encoding="utf-8"?><svg class="aboutBanner__img-decorTop" width="55" height="54" viewBox="0 0 55 54" fill="none" xmlns="http://www.w3.org/2000/svg">
                <path d="M0.00398354 8.83511C0.0550105 14.0566 5.39321 16.0852 9.93853 14.9482C16.4072 13.3285 21.3215 7.43341 23.9278 1.65906L20.3951 0.958178C19.0056 6.72863 17.6907 13.9631 23.0878 18.1917C27.8843 21.953 33.4502 19.4104 37.972 16.5797L34.9064 15.2987C30.2669 27.3925 44.4288 36.1533 54.4183 29.2186L51.5373 27.6222C45.8615 34.9618 41.6302 44.077 45.995 53.1103C46.725 54.625 50.3401 54.0837 49.5276 52.4055C45.4572 43.9913 49.4334 35.76 54.7009 28.9538C55.9648 27.3185 52.8797 26.6176 51.8199 27.3535C43.6752 33.0072 35.2558 24.2931 38.4391 15.9995C39.0906 14.3058 36.2802 14.15 35.3735 14.7146C31.0559 17.4052 25.2545 18.6083 23.3351 12.7678C22.13 9.1116 23.0525 5.2724 23.9238 1.65516C24.3792 -0.23717 21.0742 -0.556472 20.3912 0.95428C19.1371 3.83335 17.3047 6.42876 15.0059 8.58206C12.4349 10.9533 3.74073 16.2798 3.66615 8.83121C3.64653 7.06737 -0.0195472 7.06737 7.85168e-05 8.83121L0.00398354 8.83511Z" fill="#212529"></path>
            </svg>