<?xml version="1.0" encoding="utf-8"?><svg width="64" height="64" viewBox="0 0 64 64" fill="none" xmlns="http://www.w3.org/2000/svg">
<circle cx="32" cy="32" r="32" fill="#FAFAFA"></circle>
<path opacity="0.2" fill-rule="evenodd" clip-rule="evenodd" d="M52.4419 41.7698C53.1556 38.5541 53.5379 35.3885 52.5077 32.2781C51.3613 28.8166 49.9264 24.7579 46.4623 23.7155C43.0708 22.6949 40.0222 25.7968 36.9353 27.592C34.3513 29.0947 32.1102 30.7334 30.2898 33.1205C27.3702 36.9489 22.3451 40.5786 23.4757 45.2415C24.6192 49.9581 30.498 51.4045 35.0783 52.8714C39.3017 54.2241 44.1258 55.4724 47.8951 53.0625C51.4323 50.8009 51.5282 45.8867 52.4419 41.7698Z" fill="#21C679"></path>
<g opacity="0.2">
<rect x="42.3086" y="12.2314" width="1.0775" height="3.23249" rx="0.538749" transform="rotate(-86.7156 42.3086 12.2314)" fill="#21C679"></rect>
<rect x="43.5078" y="10.1415" width="1.0775" height="3.23249" rx="0.538749" transform="rotate(3.28438 43.5078 10.1415)" fill="#21C679"></rect>
</g>
<g opacity="0.2">
<rect x="10.8047" y="45.7987" width="0.8" height="2.4" rx="0.4" transform="rotate(-87.2188 10.8047 45.7987)" fill="#21C679"></rect>
<rect x="11.6816" y="44.2391" width="0.8" height="2.4" rx="0.4" transform="rotate(2.78118 11.6816 44.2391)" fill="#21C679"></rect>
</g>
<g opacity="0.2">
<rect x="50.3926" y="50.9578" width="0.8" height="2.4" rx="0.4" transform="rotate(-19.0166 50.3926 50.9578)" fill="#21C679"></rect>
<rect x="52.166" y="51.1929" width="0.8" height="2.4" rx="0.4" transform="rotate(70.9834 52.166 51.1929)" fill="#21C679"></rect>
</g>
<circle opacity="0.2" cx="1.6" cy="1.6" r="1.6" transform="matrix(-1 0 0 1 55.1992 24.8)" stroke="#21C679"></circle>
<circle opacity="0.2" cx="13.9992" cy="13.2" r="1.2" transform="rotate(180 13.9992 13.2)" stroke="#21C679"></circle>
<g clip-path="url(#clip0_2016_48204)">
<path d="M29.9877 29.5971L29.3733 30.0273C29.6109 30.3666 30.0786 30.4491 30.4179 30.2115L29.9877 29.5971ZM30.0075 38.2299C30.245 38.5692 30.7127 38.6517 31.052 38.4141C31.3913 38.1765 31.4738 37.7089 31.2362 37.3696L30.0075 38.2299ZM41.3886 32.3837L42.0803 32.0939L41.3886 32.3837ZM40.8281 31.0463L40.1364 31.3361L40.8281 31.0463ZM28.7982 41.1847L24.9455 35.6824L23.7167 36.5428L27.5695 42.0451L28.7982 41.1847ZM26.8804 26.467L29.3733 30.0273L30.602 29.1669L28.1091 25.6066L26.8804 26.467ZM30.4179 30.2115L32.1223 29.018L31.2619 27.7893L29.5575 28.9828L30.4179 30.2115ZM27.1902 34.2065L30.0075 38.2299L31.2362 37.3696L28.4189 33.3461L27.1902 34.2065ZM28.4189 33.3461L27.5429 32.095L26.3142 32.9554L27.1902 34.2065L28.4189 33.3461ZM27.5429 32.095L24.6806 28.0073L23.4519 28.8676L26.3142 32.9554L27.5429 32.095ZM27.1452 34.1422L27.1902 34.2065L28.4189 33.3461L28.3739 33.2818L27.1452 34.1422ZM36.9704 43.7027L38.9124 42.3429L38.052 41.1142L36.11 42.474L36.9704 43.7027ZM40.1364 31.3361L40.6968 32.6736L42.0803 32.0939L41.5198 30.7564L40.1364 31.3361ZM41.3974 36.828L41.253 39.1277L42.7501 39.2217L42.8944 36.9219L41.3974 36.828ZM40.6968 32.6736C41.2468 33.9861 41.4865 35.4077 41.3974 36.828L42.8944 36.9219C42.9981 35.2714 42.7194 33.6192 42.0803 32.0939L40.6968 32.6736ZM25.2752 33.8124C25.8826 33.3871 26.7198 33.5347 27.1452 34.1422L28.3739 33.2818C27.4734 31.9958 25.7009 31.6832 24.4148 32.5837L25.2752 33.8124ZM25.0104 26.1373C25.6178 25.7119 26.455 25.8596 26.8804 26.467L28.1091 25.6066C27.2086 24.3206 25.436 24.008 24.15 24.9085L25.0104 26.1373ZM27.5695 42.0451C29.7077 45.0988 33.9167 45.841 36.9704 43.7027L36.11 42.474C33.7349 44.1371 30.4613 43.5599 28.7982 41.1847L27.5695 42.0451ZM32.1223 29.018C34.9216 27.058 38.8157 28.1843 40.1364 31.3361L41.5198 30.7564C39.8294 26.7222 34.845 25.2804 31.2619 27.7893L32.1223 29.018ZM24.15 24.9085C22.864 25.809 22.5514 27.5816 23.4519 28.8676L24.6806 28.0073C24.2553 27.3998 24.4029 26.5626 25.0104 26.1373L24.15 24.9085ZM24.9455 35.6824C24.5201 35.075 24.6677 34.2378 25.2752 33.8124L24.4148 32.5837C23.1288 33.4842 22.8162 35.2567 23.7167 36.5428L24.9455 35.6824Z" fill="#21C679"></path>
<path d="M46.6241 42.84L36.7421 49.7595C35.3304 50.7479 34.4421 50.5524 33.5458 49.2725L32.9057 48.3582C32.0094 47.0783 32.1295 46.1767 33.5412 45.1882L43.4232 38.2687C44.835 37.2802 45.7232 37.4758 46.6195 38.7557L47.2596 39.67C48.1559 40.9499 48.0358 41.8515 46.6241 42.84Z" stroke="#21C679" stroke-width="1.5" stroke-linecap="round" stroke-linejoin="round"></path>
<path d="M15.2422 28.1664L18.3936 28.7221" stroke="#21C679" stroke-width="1.5" stroke-linecap="round"></path>
<path d="M17.5293 22.1945L20.4295 23.5469" stroke="#21C679" stroke-width="1.5" stroke-linecap="round"></path>
<path d="M31.2109 16.9871L30.6553 20.1384" stroke="#21C679" stroke-width="1.5" stroke-linecap="round"></path>
<path d="M24.7363 17.1471L25.0152 20.3349" stroke="#21C679" stroke-width="1.5" stroke-linecap="round"></path>
</g>
<defs>
<clipPath id="clip0_2016_48204">
<rect width="38.4" height="38.4" fill="white" transform="translate(4.80078 27.2) rotate(-35)"></rect>
</clipPath>
</defs>
</svg>