<?xml version="1.0" encoding="utf-8"?><svg width="64" height="64" viewBox="0 0 64 64" fill="none" xmlns="http://www.w3.org/2000/svg">
<circle cx="32" cy="32" r="32" fill="#FAFAFA"></circle>
<path d="M43.2008 27.2C43.2008 29.52 42.5128 31.648 41.3288 33.424C39.6008 35.984 36.8648 37.792 33.6808 38.256C33.1368 38.352 32.5768 38.4 32.0008 38.4C31.4248 38.4 30.8648 38.352 30.3208 38.256C27.1368 37.792 24.4008 35.984 22.6728 33.424C21.4888 31.648 20.8008 29.52 20.8008 27.2C20.8008 21.008 25.8088 16 32.0008 16C38.1928 16 43.2008 21.008 43.2008 27.2Z" stroke="#ECA564" stroke-width="1.5" stroke-linecap="round" stroke-linejoin="round"></path>
<path d="M46.8017 42.352L44.1617 42.976C43.5697 43.12 43.1057 43.568 42.9777 44.16L42.4177 46.512C42.1137 47.792 40.4817 48.176 39.6337 47.168L32.0017 38.4L24.3697 47.184C23.5217 48.192 21.8897 47.808 21.5857 46.528L21.0257 44.176C20.8817 43.584 20.4177 43.12 19.8417 42.992L17.2017 42.368C15.9857 42.08 15.5537 40.56 16.4337 39.68L22.6737 33.44C24.4017 36 27.1377 37.808 30.3217 38.272C30.8657 38.368 31.4257 38.416 32.0017 38.416C32.5777 38.416 33.1377 38.368 33.6817 38.272C36.8657 37.808 39.6017 36 41.3297 33.44L47.5697 39.68C48.4497 40.544 48.0177 42.064 46.8017 42.352Z" stroke="#ECA564" stroke-width="1.5" stroke-linecap="round" stroke-linejoin="round"></path>
<path d="M32.9283 22.368L33.8723 24.256C34.0003 24.512 34.3363 24.768 34.6403 24.816L36.3523 25.104C37.4403 25.28 37.6963 26.08 36.9123 26.864L35.5843 28.192C35.3603 28.416 35.2323 28.848 35.3123 29.168L35.6963 30.816C36.0003 32.112 35.3123 32.6239 34.1603 31.9359L32.5603 30.992C32.2723 30.816 31.7923 30.816 31.5043 30.992L29.9043 31.9359C28.7523 32.6079 28.0643 32.112 28.3683 30.816L28.7523 29.168C28.8163 28.864 28.7043 28.416 28.4803 28.192L27.1523 26.864C26.3683 26.08 26.6243 25.296 27.7123 25.104L29.4243 24.816C29.7123 24.768 30.0483 24.512 30.1763 24.256L31.1203 22.368C31.5843 21.344 32.4163 21.344 32.9283 22.368Z" stroke="#ECA564" stroke-width="1.5" stroke-linecap="round" stroke-linejoin="round"></path>
<path opacity="0.2" fill-rule="evenodd" clip-rule="evenodd" d="M31.4606 31.855C34.0102 29.8912 36.8305 28.5191 40.0293 28.2955C43.9523 28.0212 48.7693 27.3713 51.1341 30.4794C53.4858 33.5703 51.3866 37.9697 50.2347 41.7088C49.3696 44.5169 47.6746 46.7773 45.5001 48.7674C43.1665 50.9031 40.7097 52.9461 37.5756 53.2943C33.6813 53.727 29.1444 53.7866 26.5701 50.8707C23.9668 47.9218 24.4451 43.3749 25.4317 39.5388C26.272 36.2715 28.7781 33.9211 31.4606 31.855Z" fill="#ECA564"></path>
<g opacity="0.3">
<rect x="18.8516" y="12.5011" width="1.0775" height="3.23249" rx="0.538749" transform="rotate(-27.7119 18.8516 12.5011)" fill="#ECA564"></rect>
<rect x="21.2598" y="12.4528" width="1.0775" height="3.23249" rx="0.538749" transform="rotate(62.2881 21.2598 12.4528)" fill="#ECA564"></rect>
</g>
<g opacity="0.3">
<rect x="24.4062" y="55.5659" width="0.8" height="2.4" rx="0.4" transform="rotate(-87.2188 24.4062 55.5659)" fill="#ECA564"></rect>
<rect x="25.2832" y="54.0063" width="0.8" height="2.4" rx="0.4" transform="rotate(2.78118 25.2832 54.0063)" fill="#ECA564"></rect>
</g>
<g opacity="0.3">
<rect x="53.5918" y="42.1577" width="0.8" height="2.4" rx="0.4" transform="rotate(-19.0166 53.5918 42.1577)" fill="#ECA564"></rect>
<rect x="55.3652" y="42.3929" width="0.8" height="2.4" rx="0.4" transform="rotate(70.9834 55.3652 42.3929)" fill="#ECA564"></rect>
</g>
<circle opacity="0.3" cx="1.6" cy="1.6" r="1.6" transform="matrix(-1 0 0 1 58.4004 26.4)" stroke="#ECA564"></circle>
<circle opacity="0.3" cx="0.8" cy="0.8" r="0.8" transform="matrix(-1 0 0 1 46.4004 8.79999)" stroke="#ECA564"></circle>
<circle opacity="0.3" cx="6.8" cy="28.4" r="1.2" transform="rotate(180 6.8 28.4)" stroke="#ECA564"></circle>
</svg>