<?xml version="1.0" encoding="utf-8"?><svg width="64" height="64" viewBox="0 0 64 64" fill="none" xmlns="http://www.w3.org/2000/svg">
<circle cx="32" cy="32" r="32" fill="#FAFAFA"></circle>
<g opacity="0.2">
<rect x="42.3086" y="12.2314" width="1.0775" height="3.23249" rx="0.538749" transform="rotate(-86.7156 42.3086 12.2314)" fill="#F17272"></rect>
<rect x="43.5078" y="10.1415" width="1.0775" height="3.23249" rx="0.538749" transform="rotate(3.28438 43.5078 10.1415)" fill="#F17272"></rect>
</g>
<g opacity="0.2">
<rect x="10.8047" y="45.7987" width="0.8" height="2.4" rx="0.4" transform="rotate(-87.2188 10.8047 45.7987)" fill="#F17272"></rect>
<rect x="11.6816" y="44.2391" width="0.8" height="2.4" rx="0.4" transform="rotate(2.78118 11.6816 44.2391)" fill="#F17272"></rect>
</g>
<g opacity="0.2">
<rect x="49.5918" y="51.5906" width="0.8" height="2.4" rx="0.4" transform="rotate(-19.0166 49.5918 51.5906)" fill="#F17272"></rect>
<rect x="51.3652" y="51.8258" width="0.8" height="2.4" rx="0.4" transform="rotate(70.9834 51.3652 51.8258)" fill="#F17272"></rect>
</g>
<circle opacity="0.2" cx="1.6" cy="1.6" r="1.6" transform="matrix(-1 0 0 1 53.5996 27.0323)" stroke="#F17272"></circle>
<circle opacity="0.2" cx="15.6008" cy="17.0328" r="1.2" transform="rotate(180 15.6008 17.0328)" stroke="#F17272"></circle>
<path opacity="0.2" fill-rule="evenodd" clip-rule="evenodd" d="M37.6277 24.8135C41.4428 24.6489 45.0356 25.9988 48.0756 28.2929C51.6899 31.0205 55.6901 34.1667 55.9813 38.6642C56.2819 43.3088 53.0618 47.4209 49.5106 50.4599C46.2249 53.2717 41.9638 54.2398 37.6277 54.3706C33.116 54.5068 28.2742 54.2833 24.9996 51.1995C21.6658 48.0598 20.3244 43.1834 20.9498 38.6642C21.5121 34.6013 24.8813 31.7884 28.05 29.1569C30.8485 26.8327 33.9823 24.9708 37.6277 24.8135Z" fill="#F17272"></path>
<path d="M39.9355 22.672C43.1355 24.896 45.3435 28.432 45.7915 32.512" stroke="#F17272" stroke-width="1.5" stroke-linecap="round" stroke-linejoin="round"></path>
<path d="M18.3828 32.592C18.7988 28.528 20.9748 24.992 24.1428 22.752" stroke="#F17272" stroke-width="1.5" stroke-linecap="round" stroke-linejoin="round"></path>
<path d="M25.9043 46.304C27.7603 47.248 29.8723 47.776 32.0963 47.776C34.2403 47.776 36.2563 47.296 38.0643 46.416" stroke="#F17272" stroke-width="1.5" stroke-linecap="round" stroke-linejoin="round"></path>
<path d="M32.0945 25.12C34.551 25.12 36.5425 23.1286 36.5425 20.672C36.5425 18.2155 34.551 16.224 32.0945 16.224C29.6379 16.224 27.6465 18.2155 27.6465 20.672C27.6465 23.1286 29.6379 25.12 32.0945 25.12Z" stroke="#F17272" stroke-width="1.5" stroke-linecap="round" stroke-linejoin="round"></path>
<path d="M20.5261 44.672C22.9827 44.672 24.9741 42.6806 24.9741 40.224C24.9741 37.7675 22.9827 35.776 20.5261 35.776C18.0696 35.776 16.0781 37.7675 16.0781 40.224C16.0781 42.6806 18.0696 44.672 20.5261 44.672Z" stroke="#F17272" stroke-width="1.5" stroke-linecap="round" stroke-linejoin="round"></path>
<path d="M43.4695 44.672C45.926 44.672 47.9175 42.6806 47.9175 40.224C47.9175 37.7675 45.926 35.776 43.4695 35.776C41.0129 35.776 39.0215 37.7675 39.0215 40.224C39.0215 42.6806 41.0129 44.672 43.4695 44.672Z" stroke="#F17272" stroke-width="1.5" stroke-linecap="round" stroke-linejoin="round"></path>
</svg>