<?xml version="1.0" encoding="utf-8"?><svg width="64" height="64" viewBox="0 0 64 64" fill="none" xmlns="http://www.w3.org/2000/svg">
<circle cx="32" cy="32" r="32" fill="#FAFAFA"></circle>
<g opacity="0.2">
<rect x="42.1758" y="10.2897" width="1.34687" height="4.04062" rx="0.673436" transform="rotate(-86.7156 42.1758 10.2897)" fill="#F17272"></rect>
<rect x="43.6758" y="7.67743" width="1.34687" height="4.04062" rx="0.673436" transform="rotate(3.28438 43.6758 7.67743)" fill="#F17272"></rect>
</g>
<g opacity="0.2">
<rect x="10.0078" y="47.4574" width="1" height="3" rx="0.5" transform="rotate(-87.2188 10.0078 47.4574)" fill="#F17272"></rect>
<rect x="11.1055" y="45.5079" width="1" height="3" rx="0.5" transform="rotate(2.78118 11.1055 45.5079)" fill="#F17272"></rect>
</g>
<g opacity="0.2">
<rect x="51.4922" y="44.6972" width="1" height="3" rx="0.5" transform="rotate(-19.0166 51.4922 44.6972)" fill="#F17272"></rect>
<rect x="53.7109" y="44.9912" width="1" height="3" rx="0.5" transform="rotate(70.9834 53.7109 44.9912)" fill="#F17272"></rect>
</g>
<circle opacity="0.2" cx="2" cy="2" r="2" transform="matrix(-1 0 0 1 58.5 21)" stroke="#F17272"></circle>
<circle opacity="0.2" cx="10" cy="18.5" r="1.5" transform="rotate(180 10 18.5)" stroke="#F17272"></circle>
<path opacity="0.2" fill-rule="evenodd" clip-rule="evenodd" d="M37.1504 22.2713C42.3075 21.1102 47.7402 23.8137 51.4477 27.7572C55.1367 31.6811 56.8513 37.2885 56.4402 42.7888C56.057 47.9156 53.4579 52.8152 49.3644 55.6301C45.8204 58.0671 41.35 56.6254 37.1504 56.0534C33.7336 55.588 30.5411 54.7909 27.7382 52.6845C24.2121 50.0345 19.4634 47.3456 19.5002 42.7888C19.537 38.2367 24.9922 36.4359 27.8966 33.0597C31.1084 29.3261 32.4685 23.3254 37.1504 22.2713Z" fill="#F17272"></path>
<path d="M30.9885 17.7078C32.0922 16.7641 33.8998 16.7641 35.0195 17.7078L37.5469 19.8835C38.0268 20.2993 38.9225 20.6352 39.5623 20.6352H42.2817C43.9773 20.6352 45.3689 22.0268 45.3689 23.7223V26.4418C45.3689 27.0656 45.7048 27.9774 46.1207 28.4573L48.2962 30.9846C49.24 32.0883 49.24 33.8959 48.2962 35.0156L46.1207 37.5429C45.7048 38.0228 45.3689 38.9186 45.3689 39.5584V42.2779C45.3689 43.9734 43.9773 45.365 42.2817 45.365H39.5623C38.9385 45.365 38.0268 45.7008 37.5469 46.1167L35.0195 48.2922C33.9158 49.2359 32.1082 49.2359 30.9885 48.2922L28.4612 46.1167C27.9813 45.7008 27.0855 45.365 26.4456 45.365H23.6783C21.9827 45.365 20.5911 43.9734 20.5911 42.2779V39.5424C20.5911 38.9186 20.2552 38.0228 19.8553 37.5429L17.6958 34.9996C16.7681 33.8959 16.7681 32.1043 17.6958 31.0006L19.8553 28.4573C20.2552 27.9774 20.5911 27.0816 20.5911 26.4578V23.7223C20.5911 22.0268 21.9827 20.6352 23.6783 20.6352H26.4456C27.0695 20.6352 27.9813 20.2993 28.4612 19.8835L30.9885 17.7078Z" stroke="#F17272" stroke-width="1.5" stroke-linecap="round" stroke-linejoin="round"></path>
<path d="M29.6141 37.4949L31.9334 39.2865C32.2374 39.5904 32.9092 39.7344 33.3571 39.7344H36.1884C37.0842 39.7344 38.0599 39.0626 38.2839 38.1668L40.0754 32.6961C40.4433 31.6564 39.7715 30.7447 38.6518 30.7447H35.6605C35.2127 30.7447 34.8447 30.3769 34.9087 29.849L35.2766 27.4496C35.4206 26.7778 34.9727 26.0259 34.3009 25.802C33.709 25.578 32.9572 25.8819 32.6533 26.3298L29.582 30.8886" stroke="#F17272" stroke-width="1.5" stroke-miterlimit="10"></path>
<path d="M25.7891 37.4949V30.1688C25.7891 29.113 26.237 28.7451 27.2927 28.7451H28.0445C29.0842 28.7451 29.5481 29.113 29.5481 30.1688V37.4949C29.5481 38.5346 29.1002 38.9186 28.0445 38.9186H27.2927C26.237 38.9186 25.7891 38.5506 25.7891 37.4949Z" stroke="#F17272" stroke-width="1.5" stroke-linecap="round" stroke-linejoin="round"></path>
</svg>