<?xml version="1.0" encoding="utf-8"?><svg width="65" height="64" viewBox="0 0 65 64" fill="none" xmlns="http://www.w3.org/2000/svg">
<circle cx="32.5" cy="32" r="32" fill="#FAFAFA"></circle>
<g opacity="0.2">
<rect x="42.8438" y="10.2896" width="1.34687" height="4.04062" rx="0.673436" transform="rotate(-86.7156 42.8438 10.2896)" fill="#ECA564"></rect>
<rect x="44.3418" y="7.67725" width="1.34687" height="4.04062" rx="0.673436" transform="rotate(3.28438 44.3418 7.67725)" fill="#ECA564"></rect>
</g>
<g opacity="0.2">
<rect x="10.6738" y="47.4573" width="1" height="3" rx="0.5" transform="rotate(-87.2188 10.6738 47.4573)" fill="#ECA564"></rect>
<rect x="11.7695" y="45.5078" width="1" height="3" rx="0.5" transform="rotate(2.78118 11.7695 45.5078)" fill="#ECA564"></rect>
</g>
<g opacity="0.2">
<rect x="52.1562" y="44.6973" width="1" height="3" rx="0.5" transform="rotate(-19.0166 52.1562 44.6973)" fill="#ECA564"></rect>
<rect x="54.373" y="44.9912" width="1" height="3" rx="0.5" transform="rotate(70.9834 54.373 44.9912)" fill="#ECA564"></rect>
</g>
<circle opacity="0.2" r="2" transform="matrix(-1 0 0 1 57.166 23)" stroke="#ECA564"></circle>
<circle opacity="0.2" cx="10.666" cy="18.5" r="1.5" transform="rotate(-180 10.666 18.5)" stroke="#ECA564"></circle>
<path opacity="0.2" fill-rule="evenodd" clip-rule="evenodd" d="M35.5276 25.4846C39.7583 24.2777 44.624 25.3689 47.9164 28.2713C51.3538 31.3016 52.8393 36.0173 52.65 40.5791C52.4679 44.9678 50.6598 49.5454 46.9353 51.9123C43.6027 54.0302 39.4791 51.2698 35.5276 51.4606C31.1399 51.6724 26.3823 55.7995 22.9545 53.0701C19.5421 50.3529 20.6285 44.7475 21.8618 40.5791C22.8061 37.3874 26.4274 36.2363 28.6667 33.7629C31.1679 31.0001 31.9326 26.5102 35.5276 25.4846Z" fill="#ECA564"></path>
<path d="M42.4137 40.8932L39.5604 35.2L36.707 40.8932" stroke="#ECA564" stroke-width="1.5" stroke-linecap="round" stroke-linejoin="round"></path>
<path d="M37.2266 39.8799H41.9199" stroke="#ECA564" stroke-width="1.5" stroke-linecap="round" stroke-linejoin="round"></path>
<path d="M39.5604 45.3333C35.8271 45.3333 32.7871 42.3066 32.7871 38.5599C32.7871 34.8266 35.8138 31.7866 39.5604 31.7866C43.2938 31.7866 46.3338 34.8132 46.3338 38.5599C46.3338 42.3066 43.3071 45.3333 39.5604 45.3333Z" stroke="#ECA564" stroke-width="1.5" stroke-linecap="round" stroke-linejoin="round"></path>
<path d="M23.6927 18.6667H28.9194C31.6794 18.6667 33.0127 20.0001 32.946 22.6934V27.9201C33.0127 30.6801 31.6794 32.0134 28.9194 31.9468H23.6927C20.9994 32.0001 19.666 30.6667 19.666 27.9067V22.6801C19.666 20.0001 20.9994 18.6667 23.6927 18.6667Z" stroke="#ECA564" stroke-width="1.5" stroke-linecap="round" stroke-linejoin="round"></path>
<path d="M29.0129 23.8H23.5996" stroke="#ECA564" stroke-width="1.5" stroke-linecap="round" stroke-linejoin="round"></path>
<path d="M26.293 22.8933V23.8" stroke="#ECA564" stroke-width="1.5" stroke-linecap="round" stroke-linejoin="round"></path>
<path d="M27.6526 23.7866C27.6526 26.12 25.8259 28.0133 23.5859 28.0133" stroke="#ECA564" stroke-width="1.5" stroke-linecap="round" stroke-linejoin="round"></path>
<path d="M29.0135 28.0134C28.0402 28.0134 27.1602 27.4934 26.5469 26.6667" stroke="#ECA564" stroke-width="1.5" stroke-linecap="round" stroke-linejoin="round"></path>
<path d="M19.666 36C19.666 41.16 23.8393 45.3333 28.9993 45.3333L27.5993 43" stroke="#ECA564" stroke-width="1.5" stroke-linecap="round" stroke-linejoin="round"></path>
<path d="M46.3333 28.0001C46.3333 22.8401 42.16 18.6667 37 18.6667L38.4 21.0001" stroke="#ECA564" stroke-width="1.5" stroke-linecap="round" stroke-linejoin="round"></path>
</svg>