<?xml version="1.0" encoding="utf-8"?><svg width="64" height="65" viewBox="0 0 64 65" fill="none" xmlns="http://www.w3.org/2000/svg">
<g clip-path="url(#clip0_305_38094)">
<path opacity="0.2" fill-rule="evenodd" clip-rule="evenodd" d="M46.8974 25.0802C50.6669 27.3972 51.7449 32.0991 52.8526 36.3936C53.9763 40.7504 55.5137 45.5361 53.167 49.3878C50.8281 53.2266 45.8481 53.913 41.5029 55.0222C37.1403 56.1357 32.6337 57.5191 28.538 55.6744C24.0143 53.6369 19.8489 49.836 19.0765 44.9212C18.336 40.2101 22.0295 36.2474 24.8823 32.4144C27.343 29.1082 30.1305 26.1257 34.0328 24.8256C38.2696 23.4142 43.1034 22.7481 46.8974 25.0802Z" fill="#ECA564"></path>
<g opacity="0.3">
<rect x="34.5664" y="5.62646" width="1.34687" height="4.04062" rx="0.673436" transform="rotate(-27.7119 34.5664 5.62646)" fill="#ECA564"></rect>
<rect x="37.5762" y="5.56592" width="1.34687" height="4.04062" rx="0.673436" transform="rotate(62.2881 37.5762 5.56592)" fill="#ECA564"></rect>
</g>
<g opacity="0.3">
<rect x="58.9902" y="38.6973" width="1" height="3" rx="0.5" transform="rotate(-19.0166 58.9902 38.6973)" fill="#ECA564"></rect>
<rect x="61.207" y="38.9912" width="1" height="3" rx="0.5" transform="rotate(70.9834 61.207 38.9912)" fill="#ECA564"></rect>
</g>
<circle opacity="0.3" cx="12.5" cy="16.5" r="1.5" transform="rotate(-180 12.5 16.5)" stroke="#ECA564"></circle>
<circle opacity="0.3" r="2" transform="matrix(-1 0 0 1 46 49)" stroke="#ECA564"></circle>
<g opacity="0.3">
<rect x="9" y="56.0664" width="1.34687" height="4.04062" rx="0.673436" transform="rotate(-47.3003 9 56.0664)" fill="#ECA564"></rect>
<rect x="11.8164" y="55" width="1.34687" height="4.04062" rx="0.673436" transform="rotate(42.6997 11.8164 55)" fill="#ECA564"></rect>
</g>
<path d="M38.4054 43.2205C38.4054 45.3605 36.6699 47.096 34.5299 47.096H24.214L18.3544 51.8612V47.096H12.8129C10.6729 47.096 8.9375 45.3606 8.9375 43.2205V29.1342C8.9375 26.9934 10.6729 25.2588 12.8129 25.2588H33.3661L34.926 31.3708H38.4054V35.0229" stroke="#ECA564" stroke-width="1.5" stroke-miterlimit="10" stroke-linecap="round" stroke-linejoin="round"></path>
<path d="M15.0449 40.7331L18.4591 31.7687C18.5289 31.5981 18.7704 31.5979 18.8405 31.7683L22.2236 40.7331" stroke="#ECA564" stroke-width="1.5" stroke-miterlimit="10" stroke-linecap="round" stroke-linejoin="round"></path>
<path d="M16.1094 38.5005H21.1756" stroke="#ECA564" stroke-width="1.5" stroke-miterlimit="10" stroke-linecap="round" stroke-linejoin="round"></path>
<path d="M26.2383 31.7847V40.4556" stroke="#ECA564" stroke-width="1.5" stroke-miterlimit="10" stroke-linecap="round" stroke-linejoin="round"></path>
<path d="M32.3004 36.1872C32.3004 38.6183 30.9511 40.542 28.8104 40.5795C28.0978 40.5919 26.2562 40.5989 26.2562 40.5989C26.2562 40.5989 26.2447 37.4029 26.2447 36.1774C26.2447 35.1709 26.2383 31.7754 26.2383 31.7754C26.2383 31.7754 27.8951 31.7754 28.7373 31.7754C31.0853 31.7755 32.3004 33.756 32.3004 36.1872Z" stroke="#ECA564" stroke-width="1.5" stroke-miterlimit="10" stroke-linecap="round" stroke-linejoin="round"></path>
<path d="M47.3468 14.608C47.9973 14.379 48.6788 14.8617 48.6788 15.5512V26.9476C48.6788 27.6372 47.9973 28.1199 47.3468 27.8909L39.8516 25.2529V17.2459L47.3468 14.608Z" stroke="#ECA564" stroke-width="1.5" stroke-miterlimit="10" stroke-linecap="round" stroke-linejoin="round"></path>
<path d="M34.4859 25.2531H39.851V17.2461H34.4859C32.2748 17.2461 30.4824 19.0385 30.4824 21.2496C30.4825 23.4606 32.2749 25.2531 34.4859 25.2531Z" stroke="#ECA564" stroke-width="1.5" stroke-miterlimit="10" stroke-linecap="round" stroke-linejoin="round"></path>
<path d="M38.4047 31.3705V25.2529H33.3633" stroke="#ECA564" stroke-width="1.5" stroke-miterlimit="10" stroke-linecap="round" stroke-linejoin="round"></path>
<path d="M52.3867 21.25H55.0623" stroke="#ECA564" stroke-width="1.5" stroke-miterlimit="10" stroke-linecap="round" stroke-linejoin="round"></path>
<path d="M52.3867 16.6463L54.7074 15.3931" stroke="#ECA564" stroke-width="1.5" stroke-miterlimit="10" stroke-linecap="round" stroke-linejoin="round"></path>
<path d="M54.7074 27.1068L52.3867 25.8535" stroke="#ECA564" stroke-width="1.5" stroke-miterlimit="10" stroke-linecap="round" stroke-linejoin="round"></path>
</g>
<defs>
<clipPath id="clip0_305_38094">
<rect width="64" height="64" fill="white" transform="translate(0 0.998047)"></rect>
</clipPath>
</defs>
</svg>