<?xml version="1.0" encoding="utf-8"?><svg width="64" height="64" viewBox="0 0 64 64" fill="none" xmlns="http://www.w3.org/2000/svg">
<path fill-rule="evenodd" clip-rule="evenodd" d="M35.0254 22.7787C38.765 20.8019 43.2277 19.5154 47.119 21.1427C51.0516 22.7873 52.7784 27.052 54.5163 30.9296C56.3939 35.1188 59.1879 39.6768 57.3102 43.8812C55.433 48.0843 50.0671 48.8539 45.7638 50.5274C41.4487 52.2054 37.0962 54.9351 32.7264 53.4412C28.1308 51.8701 24.4804 47.6684 23.5227 42.9238C22.6546 38.623 26.04 34.9545 28.2232 31.1311C30.0723 27.8926 31.7207 24.5255 35.0254 22.7787Z" fill="#E4EEFA"></path>
<rect x="56.5" y="11.0664" width="1.34687" height="4.04062" rx="0.673436" transform="rotate(-47.3003 56.5 11.0664)" fill="#E4EEFA"></rect>
<rect x="4.40625" y="5.46631" width="1.34687" height="4.04062" rx="0.673436" transform="rotate(-27.7119 4.40625 5.46631)" fill="#E4EEFA"></rect>
<rect x="59.3164" y="10" width="1.34687" height="4.04062" rx="0.673436" transform="rotate(42.6997 59.3164 10)" fill="#E4EEFA"></rect>
<rect x="7.41602" y="5.40576" width="1.34687" height="4.04062" rx="0.673436" transform="rotate(62.2881 7.41602 5.40576)" fill="#E4EEFA"></rect>
<rect x="30.918" y="59.8682" width="1" height="3" rx="0.5" transform="rotate(-87.2188 30.918 59.8682)" fill="#E4EEFA"></rect>
<rect x="32.0137" y="57.9189" width="1" height="3" rx="0.5" transform="rotate(2.78118 32.0137 57.9189)" fill="#E4EEFA"></rect>
<rect x="57.9902" y="48.6973" width="1" height="3" rx="0.5" transform="rotate(-19.0166 57.9902 48.6973)" fill="#E4EEFA"></rect>
<rect x="60.207" y="48.9912" width="1" height="3" rx="0.5" transform="rotate(70.9834 60.207 48.9912)" fill="#E4EEFA"></rect>
<circle r="2" transform="matrix(-1 0 0 1 58 23)" stroke="#AFC9E8"></circle>
<circle cx="30" cy="6.5" r="1.5" transform="rotate(-180 30 6.5)" stroke="#E4EEFA" stroke-width="1.5"></circle>
<path d="M44.0002 22.32C43.8802 22.3 43.7402 22.3 43.6202 22.32C40.8602 22.22 38.6602 19.96 38.6602 17.16C38.6602 14.3 40.9602 12 43.8202 12C46.6802 12 48.9801 14.32 48.9801 17.16C48.9601 19.96 46.7602 22.22 44.0002 22.32Z" stroke="#3E7CC5" stroke-width="1.5" stroke-linecap="round" stroke-linejoin="round"></path>
<path d="M41.9409 36.8803C44.6809 37.3403 47.7009 36.8603 49.8209 35.4403C52.6409 33.5603 52.6409 30.4803 49.8209 28.6003C47.6809 27.1803 44.6209 26.7003 41.8809 27.1803" stroke="#3E7CC5" stroke-width="1.5" stroke-linecap="round" stroke-linejoin="round"></path>
<path d="M19.9409 22.32C20.0609 22.3 20.2009 22.3 20.3209 22.32C23.0809 22.22 25.2809 19.96 25.2809 17.16C25.2809 14.3 22.9809 12 20.1209 12C17.2609 12 14.9609 14.32 14.9609 17.16C14.9809 19.96 17.1809 22.22 19.9409 22.32Z" stroke="#3E7CC5" stroke-width="1.5" stroke-linecap="round" stroke-linejoin="round"></path>
<path d="M22.0009 36.8798C19.2609 37.3398 16.2409 36.8598 14.1209 35.4398C11.3009 33.5598 11.3009 30.4798 14.1209 28.5998C16.2609 27.1798 19.3209 26.6998 22.0609 27.1798" stroke="#3E7CC5" stroke-width="1.5" stroke-linecap="round" stroke-linejoin="round"></path>
<path d="M32.0002 37.2599C31.8802 37.2399 31.7402 37.2399 31.6202 37.2599C28.8602 37.1599 26.6602 34.8999 26.6602 32.0999C26.6602 29.2399 28.9602 26.9399 31.8202 26.9399C34.6802 26.9399 36.9802 29.2599 36.9802 32.0999C36.9602 34.8999 34.7602 37.1799 32.0002 37.2599Z" stroke="#3E7CC5" stroke-width="1.5" stroke-linecap="round" stroke-linejoin="round"></path>
<path d="M26.1795 43.5597C23.3595 45.4397 23.3595 48.5197 26.1795 50.3997C29.3795 52.5397 34.6195 52.5397 37.8195 50.3997C40.6395 48.5197 40.6395 45.4397 37.8195 43.5597C34.6395 41.4397 29.3795 41.4397 26.1795 43.5597Z" stroke="#3E7CC5" stroke-width="1.5" stroke-linecap="round" stroke-linejoin="round"></path>
</svg>