<?xml version="1.0" encoding="utf-8"?><svg width="113" height="84" viewBox="0 0 113 84" fill="none" xmlns="http://www.w3.org/2000/svg">
                        <path d="M108.738 0.29709C108.547 0.0665616 108.116 0.486502 108.302 0.660451C113.907 6.01619 109.117 20.2239 107.218 26.5047C105.342 32.9401 102.663 39.1138 99.2449 44.8805C93.083 55.4273 83.9499 63.9246 72.9866 69.3107C48.1557 81.1187 25.3618 69.5121 4.17783 56.1145C5.7738 51.9128 23.2999 51.5601 27.6736 50.6728C28.0041 50.6038 28.2952 50.4098 28.4862 50.1313C28.6772 49.8528 28.7532 49.5114 28.6985 49.1782C28.6438 48.845 28.4625 48.5458 28.1925 48.343C27.9226 48.1402 27.5847 48.0496 27.2494 48.0899C18.7008 49.1656 10.2042 50.7729 1.69371 52.1659C1.51121 52.1959 1.33643 52.2616 1.1794 52.3594C1.02237 52.4571 0.886187 52.5848 0.778662 52.7353C0.671138 52.8858 0.594399 53.056 0.552835 53.2363C0.511271 53.4165 0.505696 53.6031 0.536453 53.7855L1.83604 58.1858C3.49042 66.4227 5.87744 74.4953 8.96861 82.3074C9.60181 83.8336 12.1062 83.0436 11.6549 81.4893C10.4057 77.273 9.14635 73.0445 7.90926 68.8181C7.60904 67.8155 6.78224 65.8345 5.96769 63.7201C5.65351 62.5034 5.38582 61.2685 5.12822 60.0457C16.0827 66.9459 27.5627 73.7373 40.3841 76.2925C54.3746 78.9573 68.8528 76.0606 80.7411 68.2181C92.5462 60.3992 101.61 49.0836 106.663 35.8562C110.008 27.6125 117.84 6.87032 108.738 0.29709Z" fill="white"></path>
                    </svg>