<?xml version="1.0" encoding="utf-8"?><svg width="64" height="64" viewBox="0 0 64 64" fill="none" xmlns="http://www.w3.org/2000/svg">
<g clip-path="url(#clip0_433_32278)">
<path fill-rule="evenodd" clip-rule="evenodd" d="M30.7015 21.3295C32.4873 17.495 35.2662 13.7736 39.3502 12.7194C43.4776 11.654 47.4301 14.0092 51.1577 16.0492C55.1847 18.253 60.1649 20.1972 61.2087 24.6819C62.2522 29.1654 58.4412 33.0205 56.0231 36.9538C53.5984 40.898 51.7792 45.7028 47.3945 47.1524C42.7832 48.6769 37.3358 47.5341 33.7062 44.3319C30.4161 41.4292 30.8975 36.4606 30.3272 32.0949C29.8442 28.397 29.1235 24.718 30.7015 21.3295Z" fill="#E4EEFA"></path>
<path d="M51.94 44.662C51.94 45.382 51.78 46.122 51.44 46.842C51.1 47.562 50.66 48.242 50.08 48.882C49.1 49.962 48.02 50.742 46.8 51.242C45.6 51.742 44.3 52.002 42.9 52.002C40.86 52.002 38.68 51.522 36.38 50.542C34.08 49.562 31.78 48.242 29.5 46.582C27.2 44.902 25.02 43.042 22.94 40.982C20.88 38.902 19.02 36.722 17.36 34.442C15.72 32.162 14.4 29.882 13.44 27.622C12.48 25.342 12 23.162 12 21.082C12 19.722 12.24 18.422 12.72 17.222C13.2 16.002 13.96 14.882 15.02 13.882C16.3 12.622 17.7 12.002 19.18 12.002C19.74 12.002 20.3 12.122 20.8 12.362C21.32 12.602 21.78 12.962 22.14 13.482L26.78 20.022C27.14 20.522 27.4 20.982 27.58 21.422C27.76 21.842 27.86 22.262 27.86 22.642C27.86 23.122 27.72 23.602 27.44 24.062C27.18 24.522 26.8 25.002 26.32 25.482L24.8 27.062C24.58 27.282 24.48 27.542 24.48 27.862C24.48 28.022 24.5 28.162 24.54 28.322C24.6 28.482 24.66 28.602 24.7 28.722C25.06 29.382 25.68 30.242 26.56 31.282C27.46 32.322 28.42 33.382 29.46 34.442C30.54 35.502 31.58 36.482 32.64 37.382C33.68 38.262 34.54 38.862 35.22 39.222C35.32 39.262 35.44 39.322 35.58 39.382C35.74 39.442 35.9 39.462 36.08 39.462C36.42 39.462 36.68 39.342 36.9 39.122L38.42 37.622C38.92 37.122 39.4 36.742 39.86 36.502C40.32 36.222 40.78 36.082 41.28 36.082C41.66 36.082 42.06 36.162 42.5 36.342C42.94 36.522 43.4 36.782 43.9 37.122L50.52 41.822C51.04 42.182 51.4 42.602 51.62 43.102C51.82 43.602 51.94 44.102 51.94 44.662Z" stroke="#3E7CC5" stroke-width="1.5" stroke-miterlimit="10"></path>
<path d="M45 26.002C45 24.802 44.06 22.962 42.66 21.462C41.38 20.082 39.68 19.002 38 19.002" stroke="#3E7CC5" stroke-width="1.5" stroke-linecap="round" stroke-linejoin="round"></path>
<path d="M52 26.002C52 18.262 45.74 12.002 38 12.002" stroke="#3E7CC5" stroke-width="1.5" stroke-linecap="round" stroke-linejoin="round"></path>
<rect x="56.5" y="11.0674" width="1.34687" height="4.04062" rx="0.673436" transform="rotate(-47.3003 56.5 11.0674)" fill="#E4EEFA"></rect>
<rect x="4.40625" y="5.46729" width="1.34687" height="4.04062" rx="0.673436" transform="rotate(-27.7119 4.40625 5.46729)" fill="#E4EEFA"></rect>
<rect x="59.3164" y="10.001" width="1.34687" height="4.04062" rx="0.673436" transform="rotate(42.6997 59.3164 10.001)" fill="#E4EEFA"></rect>
<rect x="7.41797" y="5.40674" width="1.34687" height="4.04062" rx="0.673436" transform="rotate(62.2881 7.41797 5.40674)" fill="#E4EEFA"></rect>
<rect x="30.918" y="59.8691" width="1" height="3" rx="0.5" transform="rotate(-87.2188 30.918 59.8691)" fill="#E4EEFA"></rect>
<rect x="32.0156" y="57.9199" width="1" height="3" rx="0.5" transform="rotate(2.78118 32.0156 57.9199)" fill="#E4EEFA"></rect>
<rect x="57.9922" y="48.6982" width="1" height="3" rx="0.5" transform="rotate(-19.0166 57.9922 48.6982)" fill="#E4EEFA"></rect>
<rect x="60.2109" y="48.9922" width="1" height="3" rx="0.5" transform="rotate(70.9834 60.2109 48.9922)" fill="#E4EEFA"></rect>
<circle r="2" transform="matrix(-1 0 0 1 58 23.001)" stroke="#AFC9E8"></circle>
<circle cx="30" cy="6.50098" r="1.5" transform="rotate(-180 30 6.50098)" stroke="#E4EEFA" stroke-width="1.5"></circle>
</g>
<defs>
<clipPath id="clip0_433_32278">
<rect width="64" height="64" fill="white" transform="translate(0 0.000976562)"></rect>
</clipPath>
</defs>
</svg>