<?xml version="1.0" encoding="utf-8"?><svg width="64" height="65" viewBox="0 0 64 65" fill="none" xmlns="http://www.w3.org/2000/svg">
<path opacity="0.3" fill-rule="evenodd" clip-rule="evenodd" d="M39.3318 60.7885C45.3224 60.8768 51.9788 62.0028 56.3887 57.9913C60.8923 53.8945 61.1538 47.1687 60.9533 41.1199C60.761 35.3158 59.5217 29.3614 55.306 25.3195C51.1424 21.3277 44.9667 19.0374 39.3318 20.3902C34.3289 21.5914 33.475 28.1418 29.5978 31.4918C25.0924 35.3846 16.8424 35.3924 15.3398 41.1199C13.7602 47.1412 17.9336 53.5262 22.7757 57.4959C27.2813 61.1895 33.4806 60.7023 39.3318 60.7885Z" fill="#F17272"></path>
<g opacity="0.3">
<rect x="4.40625" y="6.46484" width="1.34687" height="4.04062" rx="0.673436" transform="rotate(-27.7119 4.40625 6.46484)" fill="#F17272"></rect>
<rect x="7.41797" y="6.4043" width="1.34687" height="4.04062" rx="0.673436" transform="rotate(62.2881 7.41797 6.4043)" fill="#F17272"></rect>
</g>
<g opacity="0.3">
<rect x="56.5" y="12.0649" width="1.34687" height="4.04062" rx="0.673436" transform="rotate(-47.3003 56.5 12.0649)" fill="#F17272"></rect>
<rect x="59.3164" y="10.9985" width="1.34687" height="4.04062" rx="0.673436" transform="rotate(42.6997 59.3164 10.9985)" fill="#F17272"></rect>
</g>
<path d="M19.8005 43H44.1805C47.9805 43 49.9805 41 49.9805 37.2V13H13.9805V37.2C14.0005 41 16.0005 43 19.8005 43Z" stroke="#F17272" stroke-width="1.5" stroke-miterlimit="10" stroke-linecap="round" stroke-linejoin="round"></path>
<path d="M12 13H52" stroke="#F17272" stroke-width="1.5" stroke-miterlimit="10" stroke-linecap="round" stroke-linejoin="round"></path>
<path d="M24 53L32 49V43" stroke="#F17272" stroke-width="1.5" stroke-miterlimit="10" stroke-linecap="round" stroke-linejoin="round"></path>
<path d="M40 53L32 49" stroke="#F17272" stroke-width="1.5" stroke-miterlimit="10" stroke-linecap="round" stroke-linejoin="round"></path>
<path d="M23 31L29.3 25.74C29.8 25.32 30.46 25.44 30.8 26L33.2 30C33.54 30.56 34.2 30.66 34.7 30.26L41 25" stroke="#F17272" stroke-width="1.5" stroke-miterlimit="10" stroke-linecap="round" stroke-linejoin="round"></path>
<g opacity="0.3">
<rect x="30.918" y="60.8667" width="1" height="3" rx="0.5" transform="rotate(-87.2188 30.918 60.8667)" fill="#F17272"></rect>
<rect x="32.0156" y="58.9175" width="1" height="3" rx="0.5" transform="rotate(2.78118 32.0156 58.9175)" fill="#F17272"></rect>
</g>
<g opacity="0.3">
<rect x="57.9922" y="49.6958" width="1" height="3" rx="0.5" transform="rotate(-19.0166 57.9922 49.6958)" fill="#F17272"></rect>
<rect x="60.2109" y="49.9897" width="1" height="3" rx="0.5" transform="rotate(70.9834 60.2109 49.9897)" fill="#F17272"></rect>
</g>
<circle opacity="0.3" r="2" transform="matrix(-1 0 0 1 58 23.9985)" stroke="#F17272"></circle>
<circle opacity="0.3" cx="30" cy="7.49854" r="1.5" transform="rotate(-180 30 7.49854)" stroke="#F17272" stroke-width="1.5"></circle>
</svg>