<?xml version="1.0" encoding="utf-8"?><svg width="64" height="64" viewBox="0 0 64 64" fill="none" xmlns="http://www.w3.org/2000/svg">
<path opacity="0.3" fill-rule="evenodd" clip-rule="evenodd" d="M41.0327 21.5518C47.7031 19.9892 56.362 21.6919 59.907 27.3446C63.3541 32.841 57.6929 39.2709 56.046 45.4908C55.0338 49.3136 55.1446 53.4796 52.2474 56.2729C49.3469 59.0694 45.1354 59.771 41.0327 59.9658C36.6491 60.1739 32.487 59.4465 28.6528 57.393C22.8471 54.2837 13.7542 51.8757 14.0051 45.4908C14.2579 39.0566 24.6285 38.8177 29.5541 34.455C34.0548 30.4685 35.087 22.9446 41.0327 21.5518Z" fill="#21C679"></path>
<g opacity="0.3">
<rect x="4.40625" y="5.46729" width="1.34687" height="4.04062" rx="0.673436" transform="rotate(-27.7119 4.40625 5.46729)" fill="#21C679"></rect>
<rect x="7.41797" y="5.40674" width="1.34687" height="4.04062" rx="0.673436" transform="rotate(62.2881 7.41797 5.40674)" fill="#21C679"></rect>
</g>
<g opacity="0.3">
<rect x="56.5" y="11.0674" width="1.34687" height="4.04062" rx="0.673436" transform="rotate(-47.3003 56.5 11.0674)" fill="#21C679"></rect>
<rect x="59.3164" y="10.001" width="1.34687" height="4.04062" rx="0.673436" transform="rotate(42.6997 59.3164 10.001)" fill="#21C679"></rect>
</g>
<g opacity="0.3">
<rect x="30.918" y="59.8691" width="1" height="3" rx="0.5" transform="rotate(-87.2188 30.918 59.8691)" fill="#21C679"></rect>
<rect x="32.0156" y="57.9199" width="1" height="3" rx="0.5" transform="rotate(2.78118 32.0156 57.9199)" fill="#21C679"></rect>
</g>
<g opacity="0.3">
<rect x="57.9922" y="48.6982" width="1" height="3" rx="0.5" transform="rotate(-19.0166 57.9922 48.6982)" fill="#21C679"></rect>
<rect x="60.2109" y="48.9922" width="1" height="3" rx="0.5" transform="rotate(70.9834 60.2109 48.9922)" fill="#21C679"></rect>
</g>
<circle opacity="0.3" r="2" transform="matrix(-1 0 0 1 58 23.001)" stroke="#21C679"></circle>
<circle opacity="0.3" cx="30" cy="6.50098" r="1.5" transform="rotate(-180 30 6.50098)" stroke="#21C679"></circle>
<path d="M12 12V46C12 49.32 14.68 52 18 52H52" stroke="#21C679" stroke-width="1.5" stroke-miterlimit="10" stroke-linecap="round" stroke-linejoin="round"></path>
<path d="M18 42L27.18 31.28C28.7 29.52 31.4 29.4 33.04 31.06L34.94 32.96C36.58 34.6 39.28 34.5 40.8 32.74L50 22" stroke="#21C679" stroke-width="1.5" stroke-miterlimit="10" stroke-linecap="round" stroke-linejoin="round"></path>
</svg>