<?xml version="1.0" encoding="utf-8"?><svg width="64" height="65" viewBox="0 0 64 65" fill="none" xmlns="http://www.w3.org/2000/svg">
<g clip-path="url(#clip0_313_22618)">
<path fill-rule="evenodd" clip-rule="evenodd" d="M30.7015 22.3275C32.4873 18.493 35.2662 14.7717 39.3502 13.7175C43.4776 12.6521 47.4301 15.0072 51.1577 17.0472C55.1847 19.2511 60.1649 21.1952 61.2087 25.68C62.2522 30.1634 58.4412 34.0185 56.0231 37.9519C53.5984 41.896 51.7792 46.7008 47.3945 48.1504C42.7832 49.6749 37.3358 48.5322 33.7062 45.3299C30.4161 42.4273 30.8975 37.4586 30.3272 33.0929C29.8442 29.3951 29.1235 25.7161 30.7015 22.3275Z" fill="#E4EEFA"></path>
<path d="M55.8596 31.7328L50.6007 17.5739C50.3928 17.014 49.9778 16.5681 49.4325 16.3181C48.8869 16.0685 48.2786 16.0451 47.7186 16.2526L44.1987 17.5598C43.0399 17.9903 42.4473 19.2834 42.8776 20.4421L42.9347 20.5959C42.1019 20.912 41.1724 20.5667 39.7518 19.9717C37.6305 19.0836 34.7534 17.8911 31.101 20.1755C28.1366 18.3304 25.8106 18.7856 23.7506 19.1957C22.7043 19.4037 21.7076 19.5994 20.6783 19.4929C20.6494 19.2224 20.5752 18.9559 20.4472 18.7059C20.1736 18.1717 19.7099 17.7764 19.1418 17.5932L15.5685 16.4405C15.0001 16.2572 14.3929 16.3071 13.8589 16.5801C13.3249 16.8538 12.9296 17.3174 12.7465 17.8856L8.10842 32.2601C7.72901 33.4365 8.37739 34.7023 9.55395 35.0818L13.1271 36.2348C13.3526 36.3076 13.5841 36.3437 13.8146 36.3437C14.1655 36.3437 14.5144 36.2601 14.8366 36.0952C15.0356 35.9932 15.2076 35.8573 15.3643 35.707C15.3863 35.8157 15.4159 35.9233 15.4425 36.0313L14.5479 37.7037C14.1643 38.4213 14.0899 39.2915 14.3444 40.0908C14.5921 40.8691 15.1144 41.4907 15.7996 41.833C16.3967 42.1525 17.0544 42.2523 17.679 42.1603C17.5006 42.7519 17.5039 43.4008 17.6974 44.0088C17.945 44.7871 18.4674 45.4089 19.1525 45.7512C19.8692 46.1344 20.6941 46.2144 21.4758 45.9779C21.788 45.8832 22.0782 45.7425 22.3383 45.5618C22.5891 46.328 23.1075 46.9395 23.7848 47.278C24.5013 47.6612 25.3262 47.7412 26.1079 47.5048C26.2814 47.452 26.4483 47.3852 26.6066 47.3053C26.8416 48.2488 27.5126 49.0892 28.3489 49.5366C28.7484 49.7501 29.2189 49.8877 29.7072 49.8877C30.5946 49.8877 31.5409 49.4329 32.2255 48.1533L32.359 47.9036C32.411 47.9308 32.4628 47.958 32.5103 47.9829L32.8673 48.1691C33.3046 48.3942 33.732 48.4933 34.1338 48.4933C35.1363 48.4933 35.9783 47.8755 36.4088 47.055C36.7053 46.4905 36.8096 45.8192 36.6658 45.1677C37.0275 45.1864 37.3932 45.1434 37.7507 45.0351C38.5534 44.7918 39.2122 44.2528 39.6056 43.5174C39.9234 42.9232 40.0384 42.2563 39.9426 41.5985C40.6141 41.8772 41.3567 41.9135 42.0649 41.699C42.8746 41.4537 43.5391 40.9097 43.9358 40.168C44.2601 39.5613 44.3752 38.8796 44.2722 38.2086C45.3665 38.6448 46.4224 38.4453 47.1556 37.6421C47.8988 36.828 48.1488 35.5809 47.8708 34.468C47.9283 34.4473 47.9865 34.4264 48.0512 34.4032L48.0615 34.3995L48.1365 34.6013C48.4718 35.5035 49.3301 36.0624 50.2405 36.0624C50.4994 36.0624 50.7622 36.0174 51.0185 35.9222L54.5383 34.6151C55.6972 34.1846 56.2899 32.8918 55.8596 31.7328V31.7328ZM14.7146 34.3913C14.6375 34.6299 14.4709 34.825 14.2452 34.9405C14.0191 35.056 13.7636 35.0773 13.5254 35.0005L9.95201 33.8472C9.45626 33.6873 9.18298 33.154 9.34282 32.6582L13.9811 18.2838C14.058 18.0454 14.2246 17.8503 14.4502 17.7348C14.5866 17.665 14.7342 17.6294 14.8822 17.6294C14.979 17.6294 15.0756 17.6444 15.1699 17.6748C15.17 17.6748 15.17 17.6748 15.17 17.675L18.7434 18.8278C18.9818 18.9047 19.1769 19.0713 19.2924 19.297C19.4079 19.5227 19.4292 19.7782 19.3524 20.0168L15.6496 31.4935C15.6334 31.5248 15.6177 31.5568 15.6065 31.5915C15.574 31.6918 15.5489 31.7934 15.5203 31.8943L14.7146 34.3913ZM16.3955 40.6809C16.0104 40.4885 15.7209 40.1393 15.5806 39.6975C15.4317 39.2298 15.4723 38.7261 15.6919 38.3156L16.7025 36.426C16.7027 36.4258 16.7029 36.4257 16.703 36.4254L17.1858 35.5228C17.6355 34.6824 18.6775 34.3576 19.5231 34.7844C20.0779 35.1722 20.9099 35.9969 20.2786 37.1771L19.9346 37.8202L18.7834 39.9724C18.3267 40.8229 17.2634 41.1455 16.3955 40.6809V40.6809ZM22.1378 43.888C21.9183 44.2989 21.5494 44.6002 21.0992 44.7366C20.6493 44.873 20.175 44.827 19.7485 44.5992C19.3634 44.4068 19.0739 44.0574 18.9335 43.6156C18.7847 43.1482 18.8254 42.6444 19.045 42.2339L19.9274 40.5845L21.0785 38.4323C21.2981 38.0216 21.667 37.7203 22.1169 37.5839C22.5671 37.4472 23.0409 37.4934 23.452 37.7131C23.8627 37.9327 24.1639 38.3016 24.3004 38.7518C24.4368 39.2017 24.3907 39.676 24.1709 40.0869L23.8476 40.6916C23.8474 40.6922 23.847 40.6928 23.8466 40.6934L22.5333 43.1488C22.5333 43.149 22.5333 43.149 22.5331 43.1492L22.1378 43.888ZM25.7314 46.2633C25.2813 46.3997 24.8074 46.3537 24.3808 46.1259C23.9957 45.9335 23.7064 45.5843 23.5658 45.1426C23.4174 44.6756 23.4575 44.1729 23.6763 43.7626L23.6773 43.7608L24.9906 41.3053C24.9907 41.3051 24.9908 41.3048 24.9909 41.3045L24.9917 41.3033C25.2115 40.8934 25.5799 40.593 26.0292 40.4568C26.4789 40.3198 26.9532 40.3661 27.364 40.586C28.2166 41.0421 28.5393 42.1069 28.0834 42.9595L27.4267 44.1873L26.8446 45.2756C26.8444 45.2759 26.8442 45.2764 26.844 45.2768L26.7701 45.4149C26.5505 45.8254 26.1814 46.1269 25.7314 46.2633V46.2633ZM28.9608 48.3927C28.1104 47.9379 27.502 46.797 27.9887 45.8872L28.5708 44.7989L28.5714 44.7974C28.7984 44.3743 29.2019 44.0344 29.6789 43.865C30.155 43.6957 30.6331 43.7183 31.0253 43.9281C31.88 44.385 32.0179 44.7849 32.047 45.0459C32.0914 45.4405 31.9243 45.9652 31.5061 46.7471C31.5058 46.7477 31.5056 46.7484 31.5053 46.7489L31.0815 47.5414C30.3635 48.8848 29.4449 48.6513 28.9608 48.3927V48.3927ZM35.2602 46.4525C34.9543 47.0363 34.2795 47.4371 33.461 47.016L33.1135 46.8346C33.056 46.8043 33.0024 46.7761 32.9526 46.7502C33.2153 46.1659 33.4068 45.531 33.3363 44.9016C33.2568 44.1918 32.8629 43.5999 32.1484 43.1007L34.7029 44.4725C35.5566 45.0719 35.5537 45.8933 35.2602 46.4525V46.4525ZM46.1974 36.7676C45.7798 37.2255 45.2065 37.2643 44.4931 36.8824L42.643 35.893C42.6417 35.8923 42.6405 35.8917 42.6392 35.8911C42.6202 35.881 42.6004 35.8752 42.581 35.8671L36.6154 32.6289C36.3013 32.4576 35.9071 32.5746 35.7361 32.8896C35.5653 33.2044 35.6818 33.598 35.9968 33.769L42.0886 37.0757C42.4918 37.3122 42.7912 37.6841 42.929 38.1382C43.0739 38.6162 43.0251 39.1198 42.7916 39.5563C42.5583 39.9927 42.1664 40.3128 41.6884 40.4577C41.2095 40.6023 40.7063 40.5538 40.2703 40.3204L38.4309 39.3366C38.3989 39.3105 38.3644 39.2867 38.3268 39.2666L33.8877 36.8931C33.5714 36.7238 33.1787 36.8437 33.01 37.1593C32.8411 37.4752 32.9601 37.8682 33.2763 38.037L37.6038 40.3509C37.6358 40.3771 37.6706 40.401 37.7086 40.4213C38.1387 40.6513 38.4542 41.0372 38.5969 41.5085C38.7395 41.9796 38.6914 42.4757 38.4615 42.9057C38.2315 43.3358 37.8454 43.651 37.3743 43.7939C36.9034 43.9364 36.407 43.8885 35.9771 43.6586L35.0381 43.1564C34.9909 43.1312 34.9417 43.1144 34.8921 43.1018L31.1022 41.0668C30.7865 40.8961 30.3932 41.0155 30.224 41.3313C30.0544 41.6468 30.1729 42.0402 30.4886 42.2095L31.2851 42.6372C30.7444 42.4378 30.152 42.4002 29.5594 42.5477C29.7268 41.3197 29.1307 40.0596 27.9757 39.4418C27.266 39.0622 26.4494 38.9796 25.6743 39.2087C25.6687 38.93 25.6249 38.6501 25.5417 38.3754C25.3048 37.5935 24.7797 36.9521 24.0634 36.569C23.3434 36.1843 22.5369 36.118 21.807 36.3215C21.7945 35.2196 21.095 34.3032 20.2621 33.7183C20.2336 33.6964 20.2032 33.6767 20.1709 33.6595C18.9273 32.9946 17.4243 33.2819 16.5031 34.2658C16.4882 33.5913 16.5804 32.914 16.7678 32.2511L20.4699 20.7767C21.7214 20.9216 22.8793 20.692 24.0033 20.4679C25.8719 20.0963 27.6466 19.743 29.9398 20.993C29.4402 21.3908 28.9377 21.8447 28.4381 22.3494C28.0427 22.7493 27.636 23.1486 27.2392 23.5381C25.7929 24.9587 24.5437 26.1856 24.1865 27.0564C24.1002 27.2668 24.1304 27.5071 24.2661 27.6896C26.8478 31.1616 29.9765 29.9834 32.4895 29.0371C34.3735 28.3274 36.0006 27.7143 37.2968 28.74C37.3213 28.7594 37.3471 28.777 37.3741 28.7926C37.9931 29.1513 38.8458 29.5723 39.833 30.0599C42.22 31.2389 45.4892 32.8536 46.3339 34.1376C46.9016 34.9998 46.7215 36.1934 46.1974 36.7676V36.7676ZM47.3169 33.2889C46.1845 31.7532 42.9924 30.1735 40.4078 28.8972C39.4624 28.4301 38.6429 28.0256 38.063 27.6926C36.2012 26.2536 34.0823 27.0513 32.0326 27.8233C29.6031 28.7377 27.4907 29.5329 25.561 27.2371C26.0143 26.5598 27.0966 25.4968 28.1483 24.464C28.5495 24.07 28.9604 23.6663 29.3603 23.2621C30.0533 22.5622 30.7468 21.9734 31.4229 21.5082C34.6905 19.2612 37.1128 20.2736 39.2506 21.1682C40.2501 21.5867 41.2704 22.0138 42.2796 22.0138C42.6503 22.0138 43.019 21.9462 43.3852 21.8094L47.6097 33.1835C47.5113 33.2189 47.4116 33.2548 47.3169 33.2889V33.2889ZM54.0869 33.3989L50.5671 34.7061C50.0773 34.8868 49.5335 34.6377 49.3524 34.1495L44.0937 19.9902C44.0065 19.7554 44.0166 19.4993 44.1222 19.2687C44.2279 19.0381 44.4154 18.8631 44.6503 18.7758L48.17 17.4687C48.2758 17.4294 48.3859 17.4098 48.4958 17.4098C48.6305 17.4098 48.7651 17.4391 48.8919 17.4972C49.1223 17.6027 49.2973 17.7904 49.3845 18.0254L54.6434 32.1844C54.8248 32.6728 54.575 33.2175 54.0869 33.3989V33.3989Z" fill="#3E7CC5"></path>
<rect x="56.5" y="12.0649" width="1.34687" height="4.04062" rx="0.673436" transform="rotate(-47.3003 56.5 12.0649)" fill="#E4EEFA"></rect>
<rect x="4.40625" y="6.46484" width="1.34687" height="4.04062" rx="0.673436" transform="rotate(-27.7119 4.40625 6.46484)" fill="#E4EEFA"></rect>
<rect x="59.3164" y="10.9985" width="1.34687" height="4.04062" rx="0.673436" transform="rotate(42.6997 59.3164 10.9985)" fill="#E4EEFA"></rect>
<rect x="7.41797" y="6.4043" width="1.34687" height="4.04062" rx="0.673436" transform="rotate(62.2881 7.41797 6.4043)" fill="#E4EEFA"></rect>
<rect x="30.918" y="60.8667" width="1" height="3" rx="0.5" transform="rotate(-87.2188 30.918 60.8667)" fill="#E4EEFA"></rect>
<rect x="32.0156" y="58.9175" width="1" height="3" rx="0.5" transform="rotate(2.78118 32.0156 58.9175)" fill="#E4EEFA"></rect>
<rect x="57.9922" y="49.6958" width="1" height="3" rx="0.5" transform="rotate(-19.0166 57.9922 49.6958)" fill="#E4EEFA"></rect>
<rect x="60.2109" y="49.9897" width="1" height="3" rx="0.5" transform="rotate(70.9834 60.2109 49.9897)" fill="#E4EEFA"></rect>
<circle r="2" transform="matrix(-1 0 0 1 58 23.9985)" stroke="#AFC9E8"></circle>
<circle cx="30" cy="7.49854" r="1.5" transform="rotate(-180 30 7.49854)" stroke="#E4EEFA" stroke-width="1.5"></circle>
</g>
<defs>
<clipPath id="clip0_313_22618">
<rect width="64" height="64" fill="white" transform="translate(0 0.998535)"></rect>
</clipPath>
</defs>
</svg>